{
	"asset":{
		"generator":"Khronos glTF Blender I/O v4.5.48",
		"version":"2.0"
	},
	"extensionsUsed":[
		"KHR_materials_unlit"
	],
	"scene":0,
	"scenes":[
		{
			"name":"Scene",
			"nodes":[
				0,
				1,
				2
			]
		}
	],
	"nodes":[
		{
			"mesh":0,
			"name":"OrangeSlice1",
			"rotation":[
				0.09921020269393921,
				-0.2352694869041443,
				-0.32858702540397644,
				0.9093054533004761
			],
			"translation":[
				0.18514424562454224,
				-0.0705154687166214,
				0.7168194651603699
			]
		},
		{
			"mesh":1,
			"name":"OrangeSlice2",
			"rotation":[
				-0.6033032536506653,
				-0.5818084478378296,
				0.24429810047149658,
				0.487691193819046
			],
			"translation":[
				-0.39579156041145325,
				-0.08593310415744781,
				-0.5403955578804016
			]
		},
		{
			"mesh":2,
			"name":"Orange",
			"rotation":[
				-0.0066614458337426186,
				0.2554933428764343,
				-0.32412272691726685,
				0.9108365774154663
			],
			"translation":[
				1.666400671005249,
				-0.11112459748983383,
				-0.4177578091621399
			]
		}
	],
	"materials":[
		{
			"doubleSided":true,
			"extensions":{
				"KHR_materials_unlit":{}
			},
			"name":"Material",
			"pbrMetallicRoughness":{
				"baseColorTexture":{
					"index":0
				},
				"metallicFactor":0,
				"roughnessFactor":0.9
			}
		},
		{
			"doubleSided":true,
			"extensions":{
				"KHR_materials_unlit":{}
			},
			"name":"Material.001",
			"pbrMetallicRoughness":{
				"baseColorTexture":{
					"index":1
				},
				"metallicFactor":0,
				"roughnessFactor":0.9
			}
		},
		{
			"doubleSided":true,
			"extensions":{
				"KHR_materials_unlit":{}
			},
			"name":"Material.002",
			"pbrMetallicRoughness":{
				"baseColorTexture":{
					"index":2
				},
				"metallicFactor":0,
				"roughnessFactor":0.9
			}
		}
	],
	"meshes":[
		{
			"name":"Sphere",
			"primitives":[
				{
					"attributes":{
						"POSITION":0,
						"NORMAL":1,
						"TEXCOORD_0":2
					},
					"indices":3,
					"material":0
				},
				{
					"attributes":{
						"POSITION":4,
						"NORMAL":5,
						"TEXCOORD_0":6
					},
					"indices":7,
					"material":1
				}
			]
		},
		{
			"name":"Sphere.001",
			"primitives":[
				{
					"attributes":{
						"POSITION":8,
						"NORMAL":9,
						"TEXCOORD_0":10
					},
					"indices":11,
					"material":0
				},
				{
					"attributes":{
						"POSITION":12,
						"NORMAL":13,
						"TEXCOORD_0":14
					},
					"indices":15,
					"material":1
				}
			]
		},
		{
			"name":"Sphere.002",
			"primitives":[
				{
					"attributes":{
						"POSITION":16,
						"NORMAL":17,
						"TEXCOORD_0":18
					},
					"indices":19,
					"material":2
				}
			]
		}
	],
	"textures":[
		{
			"sampler":0,
			"source":0
		},
		{
			"sampler":0,
			"source":1
		},
		{
			"sampler":0,
			"source":0
		}
	],
	"images":[
		{
			"mimeType":"image/png",
			"name":"OrangeTex",
			"uri":"textures/OrangeTex.png"
		},
		{
			"mimeType":"image/png",
			"name":"OrangeInsides",
			"uri":"textures/OrangeInsides.png"
		}
	],
	"accessors":[
		{
			"bufferView":0,
			"componentType":5126,
			"count":304,
			"max":[
				0.9387773275375366,
				0.8541378378868103,
				0.9387770295143127
			],
			"min":[
				-0.017965489998459816,
				-0.8099604249000549,
				-0.9387776255607605
			],
			"type":"VEC3"
		},
		{
			"bufferView":1,
			"componentType":5126,
			"count":304,
			"type":"VEC3"
		},
		{
			"bufferView":2,
			"componentType":5126,
			"count":304,
			"type":"VEC2"
		},
		{
			"bufferView":3,
			"componentType":5123,
			"count":1536,
			"type":"SCALAR"
		},
		{
			"bufferView":4,
			"componentType":5126,
			"count":34,
			"max":[
				2.0283870583170938e-07,
				0.8541378378868103,
				0.9387770295143127
			],
			"min":[
				-0.017965489998459816,
				-0.8099604249000549,
				-0.9387776255607605
			],
			"type":"VEC3"
		},
		{
			"bufferView":5,
			"componentType":5126,
			"count":34,
			"type":"VEC3"
		},
		{
			"bufferView":6,
			"componentType":5126,
			"count":34,
			"type":"VEC2"
		},
		{
			"bufferView":7,
			"componentType":5123,
			"count":96,
			"type":"SCALAR"
		},
		{
			"bufferView":8,
			"componentType":5126,
			"count":530,
			"max":[
				0.03823341056704521,
				1.0906301736831665,
				0.9387770295143127
			],
			"min":[
				-0.9387767314910889,
				-0.8099604249000549,
				-0.959274411201477
			],
			"type":"VEC3"
		},
		{
			"bufferView":9,
			"componentType":5126,
			"count":530,
			"type":"VEC3"
		},
		{
			"bufferView":10,
			"componentType":5126,
			"count":530,
			"type":"VEC2"
		},
		{
			"bufferView":11,
			"componentType":5123,
			"count":2484,
			"type":"SCALAR"
		},
		{
			"bufferView":12,
			"componentType":5126,
			"count":34,
			"max":[
				2.0283870583170938e-07,
				0.8541378378868103,
				0.9387770295143127
			],
			"min":[
				-0.017965489998459816,
				-0.8099604249000549,
				-0.9387776255607605
			],
			"type":"VEC3"
		},
		{
			"bufferView":13,
			"componentType":5126,
			"count":34,
			"type":"VEC3"
		},
		{
			"bufferView":14,
			"componentType":5126,
			"count":34,
			"type":"VEC2"
		},
		{
			"bufferView":15,
			"componentType":5123,
			"count":96,
			"type":"SCALAR"
		},
		{
			"bufferView":16,
			"componentType":5126,
			"count":802,
			"max":[
				0.9387773275375366,
				1.0906301736831665,
				0.9387770295143127
			],
			"min":[
				-0.9387767314910889,
				-0.8099604249000549,
				-0.959274411201477
			],
			"type":"VEC3"
		},
		{
			"bufferView":17,
			"componentType":5126,
			"count":802,
			"type":"VEC3"
		},
		{
			"bufferView":18,
			"componentType":5126,
			"count":802,
			"type":"VEC2"
		},
		{
			"bufferView":19,
			"componentType":5123,
			"count":4032,
			"type":"SCALAR"
		}
	],
	"bufferViews":[
		{
			"buffer":0,
			"byteLength":3648,
			"byteOffset":0,
			"target":34962
		},
		{
			"buffer":0,
			"byteLength":3648,
			"byteOffset":3648,
			"target":34962
		},
		{
			"buffer":0,
			"byteLength":2432,
			"byteOffset":7296,
			"target":34962
		},
		{
			"buffer":0,
			"byteLength":3072,
			"byteOffset":9728,
			"target":34963
		},
		{
			"buffer":0,
			"byteLength":408,
			"byteOffset":12800,
			"target":34962
		},
		{
			"buffer":0,
			"byteLength":408,
			"byteOffset":13208,
			"target":34962
		},
		{
			"buffer":0,
			"byteLength":272,
			"byteOffset":13616,
			"target":34962
		},
		{
			"buffer":0,
			"byteLength":192,
			"byteOffset":13888,
			"target":34963
		},
		{
			"buffer":0,
			"byteLength":6360,
			"byteOffset":14080,
			"target":34962
		},
		{
			"buffer":0,
			"byteLength":6360,
			"byteOffset":20440,
			"target":34962
		},
		{
			"buffer":0,
			"byteLength":4240,
			"byteOffset":26800,
			"target":34962
		},
		{
			"buffer":0,
			"byteLength":4968,
			"byteOffset":31040,
			"target":34963
		},
		{
			"buffer":0,
			"byteLength":408,
			"byteOffset":36008,
			"target":34962
		},
		{
			"buffer":0,
			"byteLength":408,
			"byteOffset":36416,
			"target":34962
		},
		{
			"buffer":0,
			"byteLength":272,
			"byteOffset":36824,
			"target":34962
		},
		{
			"buffer":0,
			"byteLength":192,
			"byteOffset":37096,
			"target":34963
		},
		{
			"buffer":0,
			"byteLength":9624,
			"byteOffset":37288,
			"target":34962
		},
		{
			"buffer":0,
			"byteLength":9624,
			"byteOffset":46912,
			"target":34962
		},
		{
			"buffer":0,
			"byteLength":6416,
			"byteOffset":56536,
			"target":34962
		},
		{
			"buffer":0,
			"byteLength":8064,
			"byteOffset":62952,
			"target":34963
		}
	],
	"samplers":[
		{
			"magFilter":9729,
			"minFilter":9987
		}
	],
	"buffers":[
		{
			"byteLength":71016,
			"uri":"Orange.bin"
		}
	]
}
