{
	"asset":{
		"generator":"Khronos glTF Blender I/O v4.5.48",
		"version":"2.0"
	},
	"extensionsUsed":[
		"KHR_materials_unlit"
	],
	"scene":0,
	"scenes":[
		{
			"name":"Scene",
			"nodes":[
				0,
				1,
				2
			]
		}
	],
	"nodes":[
		{
			"mesh":0,
			"name":"AppleSlice",
			"translation":[
				0,
				0.9165137410163879,
				0
			]
		},
		{
			"mesh":1,
			"name":"AppleSlice2",
			"rotation":[
				0.10625506937503815,
				0.34397563338279724,
				0.5386860966682434,
				0.7617138028144836
			],
			"translation":[
				-0.7710761427879333,
				1.0824053287506104,
				-0.013812420889735222
			]
		},
		{
			"mesh":2,
			"name":"Apple",
			"rotation":[
				0.09598604589700699,
				0.2538250684738159,
				0.11860887706279755,
				0.9551395177841187
			],
			"translation":[
				-0.1619890332221985,
				0.25638577342033386,
				1.7127349376678467
			]
		}
	],
	"materials":[
		{
			"doubleSided":true,
			"extensions":{
				"KHR_materials_unlit":{}
			},
			"name":"Material.001",
			"pbrMetallicRoughness":{
				"baseColorTexture":{
					"index":0
				},
				"metallicFactor":0,
				"roughnessFactor":0.9
			}
		},
		{
			"doubleSided":true,
			"extensions":{
				"KHR_materials_unlit":{}
			},
			"name":"Material.002",
			"pbrMetallicRoughness":{
				"baseColorTexture":{
					"index":1
				},
				"metallicFactor":0,
				"roughnessFactor":0.9
			}
		},
		{
			"doubleSided":true,
			"extensions":{
				"KHR_materials_unlit":{}
			},
			"name":"Material.003",
			"pbrMetallicRoughness":{
				"baseColorTexture":{
					"index":2
				},
				"metallicFactor":0,
				"roughnessFactor":0.9
			}
		}
	],
	"meshes":[
		{
			"name":"Cube.001",
			"primitives":[
				{
					"attributes":{
						"POSITION":0,
						"NORMAL":1,
						"TEXCOORD_0":2,
						"COLOR_0":3,
						"COLOR_1":4,
						"COLOR_2":5
					},
					"indices":6,
					"material":0
				},
				{
					"attributes":{
						"POSITION":7,
						"NORMAL":8,
						"TEXCOORD_0":9,
						"COLOR_0":10,
						"COLOR_1":11,
						"COLOR_2":12
					},
					"indices":13,
					"material":1
				}
			]
		},
		{
			"name":"Cube.002",
			"primitives":[
				{
					"attributes":{
						"POSITION":14,
						"NORMAL":15,
						"TEXCOORD_0":16,
						"COLOR_0":17,
						"COLOR_1":18,
						"COLOR_2":19
					},
					"indices":20,
					"material":0
				},
				{
					"attributes":{
						"POSITION":21,
						"NORMAL":22,
						"TEXCOORD_0":23,
						"COLOR_0":24,
						"COLOR_1":25,
						"COLOR_2":26
					},
					"indices":27,
					"material":1
				}
			]
		},
		{
			"name":"Cube.003",
			"primitives":[
				{
					"attributes":{
						"POSITION":28,
						"NORMAL":29,
						"TEXCOORD_0":30,
						"COLOR_0":31,
						"COLOR_1":32,
						"COLOR_2":33
					},
					"indices":34,
					"material":2
				}
			]
		}
	],
	"textures":[
		{
			"sampler":0,
			"source":0
		},
		{
			"sampler":0,
			"source":1
		},
		{
			"sampler":0,
			"source":0
		}
	],
	"images":[
		{
			"mimeType":"image/png",
			"name":"AppleTex",
			"uri":"textures/AppleTex.png"
		},
		{
			"mimeType":"image/png",
			"name":"AppleInsides",
			"uri":"textures/AppleInsides.png"
		}
	],
	"accessors":[
		{
			"bufferView":0,
			"componentType":5126,
			"count":431,
			"max":[
				1.0225539207458496,
				1.40901517868042,
				0.9042294025421143
			],
			"min":[
				-0.31932640075683594,
				-0.6419544219970703,
				-0.9019957184791565
			],
			"type":"VEC3"
		},
		{
			"bufferView":1,
			"componentType":5126,
			"count":431,
			"type":"VEC3"
		},
		{
			"bufferView":2,
			"componentType":5126,
			"count":431,
			"type":"VEC2"
		},
		{
			"bufferView":3,
			"componentType":5121,
			"count":431,
			"normalized":true,
			"type":"VEC4"
		},
		{
			"bufferView":4,
			"componentType":5123,
			"count":431,
			"normalized":true,
			"type":"VEC4"
		},
		{
			"bufferView":5,
			"componentType":5123,
			"count":431,
			"normalized":true,
			"type":"VEC4"
		},
		{
			"bufferView":6,
			"componentType":5123,
			"count":1920,
			"type":"SCALAR"
		},
		{
			"bufferView":7,
			"componentType":5126,
			"count":52,
			"max":[
				-3.655441105365753e-08,
				1.1620357036590576,
				0.8993594646453857
			],
			"min":[
				-0.008662980049848557,
				-0.5670284032821655,
				-0.8959768414497375
			],
			"type":"VEC3"
		},
		{
			"bufferView":8,
			"componentType":5126,
			"count":52,
			"type":"VEC3"
		},
		{
			"bufferView":9,
			"componentType":5126,
			"count":52,
			"type":"VEC2"
		},
		{
			"bufferView":10,
			"componentType":5121,
			"count":52,
			"normalized":true,
			"type":"VEC4"
		},
		{
			"bufferView":11,
			"componentType":5123,
			"count":52,
			"normalized":true,
			"type":"VEC4"
		},
		{
			"bufferView":12,
			"componentType":5123,
			"count":52,
			"normalized":true,
			"type":"VEC4"
		},
		{
			"bufferView":13,
			"componentType":5123,
			"count":150,
			"type":"SCALAR"
		},
		{
			"bufferView":14,
			"componentType":5126,
			"count":246,
			"max":[
				-3.655441105365753e-08,
				1.2088991403579712,
				0.9055057764053345
			],
			"min":[
				-1.0279771089553833,
				-0.6336173415184021,
				-0.900719404220581
			],
			"type":"VEC3"
		},
		{
			"bufferView":15,
			"componentType":5126,
			"count":246,
			"type":"VEC3"
		},
		{
			"bufferView":16,
			"componentType":5126,
			"count":246,
			"type":"VEC2"
		},
		{
			"bufferView":17,
			"componentType":5121,
			"count":246,
			"normalized":true,
			"type":"VEC4"
		},
		{
			"bufferView":18,
			"componentType":5123,
			"count":246,
			"normalized":true,
			"type":"VEC4"
		},
		{
			"bufferView":19,
			"componentType":5123,
			"count":246,
			"normalized":true,
			"type":"VEC4"
		},
		{
			"bufferView":20,
			"componentType":5123,
			"count":1200,
			"type":"SCALAR"
		},
		{
			"bufferView":21,
			"componentType":5126,
			"count":52,
			"max":[
				-3.655441105365753e-08,
				1.1620357036590576,
				0.8993594646453857
			],
			"min":[
				-0.008662980049848557,
				-0.5670284032821655,
				-0.8959768414497375
			],
			"type":"VEC3"
		},
		{
			"bufferView":22,
			"componentType":5126,
			"count":52,
			"type":"VEC3"
		},
		{
			"bufferView":23,
			"componentType":5126,
			"count":52,
			"type":"VEC2"
		},
		{
			"bufferView":24,
			"componentType":5121,
			"count":52,
			"normalized":true,
			"type":"VEC4"
		},
		{
			"bufferView":25,
			"componentType":5123,
			"count":52,
			"normalized":true,
			"type":"VEC4"
		},
		{
			"bufferView":26,
			"componentType":5123,
			"count":52,
			"normalized":true,
			"type":"VEC4"
		},
		{
			"bufferView":27,
			"componentType":5123,
			"count":150,
			"type":"SCALAR"
		},
		{
			"bufferView":28,
			"componentType":5126,
			"count":622,
			"max":[
				1.0225539207458496,
				1.40901517868042,
				0.9055057764053345
			],
			"min":[
				-1.0279771089553833,
				-0.6419544219970703,
				-0.9019957184791565
			],
			"type":"VEC3"
		},
		{
			"bufferView":29,
			"componentType":5126,
			"count":622,
			"type":"VEC3"
		},
		{
			"bufferView":30,
			"componentType":5126,
			"count":622,
			"type":"VEC2"
		},
		{
			"bufferView":31,
			"componentType":5121,
			"count":622,
			"normalized":true,
			"type":"VEC4"
		},
		{
			"bufferView":32,
			"componentType":5123,
			"count":622,
			"normalized":true,
			"type":"VEC4"
		},
		{
			"bufferView":33,
			"componentType":5123,
			"count":622,
			"normalized":true,
			"type":"VEC4"
		},
		{
			"bufferView":34,
			"componentType":5123,
			"count":3120,
			"type":"SCALAR"
		}
	],
	"bufferViews":[
		{
			"buffer":0,
			"byteLength":5172,
			"byteOffset":0,
			"target":34962
		},
		{
			"buffer":0,
			"byteLength":5172,
			"byteOffset":5172,
			"target":34962
		},
		{
			"buffer":0,
			"byteLength":3448,
			"byteOffset":10344,
			"target":34962
		},
		{
			"buffer":0,
			"byteLength":1724,
			"byteOffset":13792,
			"target":34962
		},
		{
			"buffer":0,
			"byteLength":3448,
			"byteOffset":15516,
			"target":34962
		},
		{
			"buffer":0,
			"byteLength":3448,
			"byteOffset":18964,
			"target":34962
		},
		{
			"buffer":0,
			"byteLength":3840,
			"byteOffset":22412,
			"target":34963
		},
		{
			"buffer":0,
			"byteLength":624,
			"byteOffset":26252,
			"target":34962
		},
		{
			"buffer":0,
			"byteLength":624,
			"byteOffset":26876,
			"target":34962
		},
		{
			"buffer":0,
			"byteLength":416,
			"byteOffset":27500,
			"target":34962
		},
		{
			"buffer":0,
			"byteLength":208,
			"byteOffset":27916,
			"target":34962
		},
		{
			"buffer":0,
			"byteLength":416,
			"byteOffset":28124,
			"target":34962
		},
		{
			"buffer":0,
			"byteLength":416,
			"byteOffset":28540,
			"target":34962
		},
		{
			"buffer":0,
			"byteLength":300,
			"byteOffset":28956,
			"target":34963
		},
		{
			"buffer":0,
			"byteLength":2952,
			"byteOffset":29256,
			"target":34962
		},
		{
			"buffer":0,
			"byteLength":2952,
			"byteOffset":32208,
			"target":34962
		},
		{
			"buffer":0,
			"byteLength":1968,
			"byteOffset":35160,
			"target":34962
		},
		{
			"buffer":0,
			"byteLength":984,
			"byteOffset":37128,
			"target":34962
		},
		{
			"buffer":0,
			"byteLength":1968,
			"byteOffset":38112,
			"target":34962
		},
		{
			"buffer":0,
			"byteLength":1968,
			"byteOffset":40080,
			"target":34962
		},
		{
			"buffer":0,
			"byteLength":2400,
			"byteOffset":42048,
			"target":34963
		},
		{
			"buffer":0,
			"byteLength":624,
			"byteOffset":44448,
			"target":34962
		},
		{
			"buffer":0,
			"byteLength":624,
			"byteOffset":45072,
			"target":34962
		},
		{
			"buffer":0,
			"byteLength":416,
			"byteOffset":45696,
			"target":34962
		},
		{
			"buffer":0,
			"byteLength":208,
			"byteOffset":46112,
			"target":34962
		},
		{
			"buffer":0,
			"byteLength":416,
			"byteOffset":46320,
			"target":34962
		},
		{
			"buffer":0,
			"byteLength":416,
			"byteOffset":46736,
			"target":34962
		},
		{
			"buffer":0,
			"byteLength":300,
			"byteOffset":47152,
			"target":34963
		},
		{
			"buffer":0,
			"byteLength":7464,
			"byteOffset":47452,
			"target":34962
		},
		{
			"buffer":0,
			"byteLength":7464,
			"byteOffset":54916,
			"target":34962
		},
		{
			"buffer":0,
			"byteLength":4976,
			"byteOffset":62380,
			"target":34962
		},
		{
			"buffer":0,
			"byteLength":2488,
			"byteOffset":67356,
			"target":34962
		},
		{
			"buffer":0,
			"byteLength":4976,
			"byteOffset":69844,
			"target":34962
		},
		{
			"buffer":0,
			"byteLength":4976,
			"byteOffset":74820,
			"target":34962
		},
		{
			"buffer":0,
			"byteLength":6240,
			"byteOffset":79796,
			"target":34963
		}
	],
	"samplers":[
		{
			"magFilter":9729,
			"minFilter":9987
		}
	],
	"buffers":[
		{
			"byteLength":86036,
			"uri":"Apple.bin"
		}
	]
}
