{
	"asset":{
		"generator":"Khronos glTF Blender I/O v4.5.48",
		"version":"2.0"
	},
	"extensionsUsed":[
		"KHR_materials_unlit"
	],
	"scene":0,
	"scenes":[
		{
			"name":"Scene",
			"nodes":[
				0
			]
		}
	],
	"nodes":[
		{
			"mesh":0,
			"name":"Fruit Crate"
		}
	],
	"materials":[
		{
			"doubleSided":true,
			"extensions":{
				"KHR_materials_unlit":{}
			},
			"name":"Material.001",
			"pbrMetallicRoughness":{
				"baseColorTexture":{
					"index":0
				},
				"metallicFactor":0,
				"roughnessFactor":0.9
			}
		}
	],
	"meshes":[
		{
			"name":"Cube.001",
			"primitives":[
				{
					"attributes":{
						"POSITION":0,
						"NORMAL":1,
						"TEXCOORD_0":2
					},
					"indices":3,
					"material":0
				}
			]
		}
	],
	"textures":[
		{
			"sampler":0,
			"source":0
		}
	],
	"images":[
		{
			"mimeType":"image/png",
			"name":"FruitCrateTexture",
			"uri":"textures/FruitCrateTexture.png"
		}
	],
	"accessors":[
		{
			"bufferView":0,
			"componentType":5126,
			"count":480,
			"max":[
				6.702539920806885,
				6.329127788543701,
				4.656715393066406
			],
			"min":[
				-6.705597400665283,
				-0.0010228157043457031,
				-4.585955619812012
			],
			"type":"VEC3"
		},
		{
			"bufferView":1,
			"componentType":5126,
			"count":480,
			"type":"VEC3"
		},
		{
			"bufferView":2,
			"componentType":5126,
			"count":480,
			"type":"VEC2"
		},
		{
			"bufferView":3,
			"componentType":5123,
			"count":720,
			"type":"SCALAR"
		}
	],
	"bufferViews":[
		{
			"buffer":0,
			"byteLength":5760,
			"byteOffset":0,
			"target":34962
		},
		{
			"buffer":0,
			"byteLength":5760,
			"byteOffset":5760,
			"target":34962
		},
		{
			"buffer":0,
			"byteLength":3840,
			"byteOffset":11520,
			"target":34962
		},
		{
			"buffer":0,
			"byteLength":1440,
			"byteOffset":15360,
			"target":34963
		}
	],
	"samplers":[
		{
			"magFilter":9729,
			"minFilter":9987
		}
	],
	"buffers":[
		{
			"byteLength":16800,
			"uri":"FruitCrate.bin"
		}
	]
}
